<svg width="40" height="40" viewBox="0 0 40 40" fill="none" xmlns="http://www.w3.org/2000/svg">
<g clip-path="url(#clip0_3916_3903)">
<path d="M0 0C13.2 0 26.4 0 40 0C40 13.2 40 26.4 40 40C26.8 40 13.6 40 0 40C0 26.8 0 13.6 0 0Z" fill="#262626"/>
<path d="M23.044 10C25.6832 10 28.3223 10 31.0415 10C31.0644 12.9735 31.0644 12.9735 31.0694 14.2542C31.0728 15.1235 31.0767 15.9928 31.0846 16.8621C31.0908 17.564 31.0942 18.2658 31.0957 18.9677C31.0967 19.2337 31.0987 19.4997 31.1019 19.7656C31.1259 21.9068 30.9289 23.9261 29.899 25.8521C29.832 25.9833 29.765 26.1146 29.6959 26.2498C28.1775 29.0516 25.772 30.7284 22.7445 31.6554C21.8288 31.8974 20.9434 31.9209 20.0004 31.9126C19.8305 31.9116 19.6606 31.9106 19.4855 31.9096C17.6655 31.8764 16.2108 31.4602 14.6182 30.5648C15.1161 30.3988 15.331 30.4562 15.841 30.5559C18.378 30.9731 20.6168 30.8193 22.7807 29.3571C23.7258 28.6164 24.2998 27.5861 24.9006 26.5661C24.9961 26.4062 24.9961 26.4062 25.0936 26.2431C26.0865 24.4355 26.0677 22.2872 26.1234 20.2824C26.1296 20.0743 26.1358 19.8662 26.1421 19.6582C26.1573 19.1522 26.1716 18.6462 26.1859 18.1402C25.1491 18.1402 24.1123 18.1402 23.044 18.1402C23.044 15.454 23.044 12.7677 23.044 10Z" fill="#FBFBFB"/>
<path d="M9.04852 10C11.4049 10 13.7613 10 16.1891 10C16.1891 12.3564 16.1891 14.7128 16.1891 17.1406C15.2937 17.1406 14.3982 17.1406 13.4757 17.1406C13.4897 17.7955 13.5044 18.4504 13.521 19.1053C13.5264 19.3271 13.5314 19.5489 13.5359 19.7708C13.5936 22.5618 13.7938 25.1088 15.7606 27.2802C15.8722 27.4113 15.8722 27.4113 15.986 27.5451C16.605 28.2257 17.3313 28.6426 18.1343 29.082C18.2464 29.1472 18.3586 29.2124 18.4741 29.2795C18.4741 29.3266 18.4741 29.3738 18.4741 29.4223C16.2336 29.5543 14.2566 28.9279 12.5357 27.4676C10.5066 25.6597 9.23457 23.2764 9.02521 20.5501C8.99095 19.7903 8.9991 19.0306 9.00668 18.2702C9.00748 18.0299 9.00809 17.7897 9.00851 17.5494C9.01013 16.9246 9.01432 16.2999 9.0191 15.6752C9.02431 14.9215 9.02623 14.1679 9.02872 13.4142C9.03284 12.2761 9.04106 11.1381 9.04852 10Z" fill="#FCFCFC"/>
</g>
<defs>
<clipPath id="clip0_3916_3903">
<rect width="40" height="40" rx="8" fill="white"/>
</clipPath>
</defs>
</svg>
